<?xml version="1.0" encoding="UTF-8"?>
<svg id="Layer_1" xmlns="http://www.w3.org/2000/svg" version="1.1" viewBox="0 0 1079.3 533">
  <!-- Generator: Adobe Illustrator 29.2.1, SVG Export Plug-In . SVG Version: 2.1.0 Build 116)  -->
  <defs>
    <style>
      .st0 {
        fill: #606b37;
      }
    </style>
  </defs>
  <path class="st0" d="M503.5,6.2c2.4-.1,4.7-.2,7,.2h.8c16.9,3,23.8,22.2,31.3,35.3,8.7,15.1,17,30.2,25.7,45.3l44.2,78.3c4.7,8.5,12.5,28.2,21.4,32.9,16,8.3,28.9-35.6,46.5-41.1l.6-.2c22-7.1,36.6,15.7,47,31.3l12.3,16.7c37.6-7.8,37.1-69.3,83.9-52.4,15.5,5.6,22.2,24.8,29.7,38l70.9,123.1c9.4,16.1,19.5,32.2,27.4,49.1l3,.4c10.3,1.7,26.3-4.2,34.5,3.4,8.8,8.3,14.7,22.6,20.5,33.1l42.2,70.7c16.9,27.2,41.5,53.4-13.5,53.2l-402.2-.2H36.7c-4.8-.3-11.1-.8-15.4-3l-1-.6c-10.2-5.5-6.3-15.3-2.1-23.4,10.5-20.1,23.8-39,35.4-58.5l34.6-58.9c9.1-14.6,12.7-16.3,28.7-16.2h20.7c3.4-3.8,5.7-10.4,8.2-15l20.4-35.9c10-17.4,10.9-28.1,33.1-28.2l19-.8c2.6-5.1,6.1-10,8.9-15l50.1-83.4c6.4-10.9,12.8-26.8,26.2-30.6,21.4-6.1,36.4,16.8,47.5,31.2,19.4,25,24.5,17.2,37.8-6.3l65.6-115.1c11.9-22,20.5-53.1,49.1-57.5h0Z"/>
</svg>