<?xml version="1.0" encoding="UTF-8"?>
<svg width="1200pt" height="1200pt" version="1.1" viewBox="0 0 1200 1200" xmlns="http://www.w3.org/2000/svg">
 <path d="m576.1 637.78c0.23438-0.09375 0.375-0.375 0.28125-0.60938-1.0312-2.5781-2.3438-4.875-3.6094-7.2656 3.8906 2.7188 8.1562 5.0156 12.938 6.7031-1.0781 0.28125-2.1094 0.51562-3.1406 0.75-3.7031 0.89062-7.4062 1.8281-11.109 2.7188-0.09375-2.7656-0.75-5.0625-1.9688-6.8906 2.0156 1.5469 3.9844 3.1406 6.1875 4.5 0.14062 0.14062 0.28125 0.1875 0.42188 0.09375zm-88.969 23.062c-20.109-2.1562-37.406-7.1719-54.094-12.047-25.5-7.4062-49.594-14.484-79.031-8.7188-32.438 6.375-63.047 1.3125-82.5-8.1562 9.7969 9.8906 24.891 19.922 42.094 31.312 18.047 12 38.531 25.547 58.406 42.562 0.32812 0.28125 0.60938 0.5625 0.84375 0.89062 20.953 27.188 93.75 44.719 146.68 55.5 52.969 7.4062 97.969 7.1719 136.97-0.84375 21.938-13.359 45.188-17.953 69.797-22.781 22.641-4.4531 46.031-9.0469 72.656-20.625 40.688-20.016 58.5-47.906 79.125-80.25 19.547-30.609 41.578-65.156 87.469-99.891-2.3438-3.5156-4.7344-5.5781-7.3125-6.1875-8.0156-1.9219-21.938 8.3438-39.562 21.328-27.938 20.625-66.188 48.844-124.4 65.203-33.188 11.109-63.797 13.312-93.328 6.6094-0.65625-0.14062-1.3125-0.42188-1.875-0.75-7.5938-4.7812-14.203-1.875-26.203 4.125-9.5625 4.7812-20.438 10.219-34.547 10.922-15.797 0.75-33.844 5.25-52.922 9.9375-30 7.5469-64.078 15.984-98.25 11.859zm166.31-37.031 1.4062-0.5625c0.14062-0.46875 0.28125-0.84375 0.42188-1.3125-0.51562 0.65625-1.2188 1.2656-1.8281 1.875zm-6.4688 1.9219c0.14062-0.60938 0.23438-1.2188 0.375-1.8281-0.75 0.75-1.5 1.5-2.2969 2.25 0.65625-0.14062 1.3125-0.28125 1.9219-0.42188zm264.61-82.406c21.703-15.984 36.141-26.531 49.5-23.344 7.125 1.6875 12.891 7.2188 17.719 16.828 1.3125 2.625 0.5625 5.8125-1.8281 7.5-46.969 34.453-69.188 69.188-88.734 99.844-20.672 32.438-40.219 63.047-84.188 84.656-28.125 12.188-53.25 17.156-75.375 21.516-16.922 3.3281-32.25 6.4219-46.734 12 0.09375 0.32812 0.28125 0.65625 0.28125 1.0312 1.7812 27-31.875 45.844-102.98 57.469-5.5781 1.2188-11.016 2.5781-16.453 3.9844 4.0312 18.422-1.6875 35.906-17.203 51.938-22.219 20.484-34.125 42.375-28.594 52.266 2.3438 4.2188 15.234 16.5 81.422-2.2969 1.2188-0.375 2.5312-0.28125 3.75 0.14062 15.844 6 36.469-1.5938 60.375-10.406 19.312-7.125 41.156-15.188 64.406-17.156 32.203-6.0469 54-20.812 77.109-36.422 20.344-13.734 41.344-27.938 69.984-35.25 43.922-17.438 95.156-71.062 119.72-96.844l2.625-2.7656c8.5781-8.0625 16.547-14.719 24.281-21.188 25.031-20.906 44.766-37.406 52.594-74.953 2.5312-13.266 7.7812-28.734 13.359-45.094 19.031-55.875 29.719-96.422-6.2344-109.17-17.766-4.3125-35.625-18.75-52.875-32.672-26.156-21.141-50.906-41.109-75.281-27.562-2.6719 21.984-18.094 64.078-48.375 131.68 2.5781-1.9219 5.2031-3.8438 7.7344-5.7188zm-259.55 16.828c1.4062-1.875 2.0156-4.1719 2.3906-6.6094 0.60938-4.9219 2.3906-9.2344 4.5-13.312 0.75-1.125 1.6875-2.1094 2.5312-3.1875-1.0312 0.70312-2.0625 1.4531-2.8594 2.2969-1.6406 1.7344-2.5312 4.0312-3.2812 6.4219-1.2656 4.9219-3.6094 9.0938-6.2344 13.031-2.625 3.1875-5.9062 5.9531-9.9844 8.1094 1.6875 1.125 3.375 2.25 4.875 3.5156 0.65625-1.9219 1.5469-3.6562 2.7188-5.2969 1.6875-1.6875 3.9375-3.0938 5.3438-4.9688zm-85.266 38.672c0 16.219 17.812 29.391 39.75 29.391 21.891 0 39.75-13.172 39.75-29.391s-17.812-29.391-39.75-29.391c-21.891 0-39.75 13.172-39.75 29.391zm-414.89 170.44c40.359 18.047 80.438 45.844 122.29 84.844 64.594 44.203 113.2 50.859 152.26 20.344 42.047-27.938 82.594-46.969 125.95-59.156 0.32812-0.1875 0.60938-0.46875 1.0312-0.5625 0.60938-0.1875 1.1719-0.23438 1.7812-0.23438 7.1719-1.9688 14.391-3.7969 21.703-5.3906 58.688-9.6562 90.609-23.953 93.141-41.531-2.7188 1.4062-5.4375 2.9062-8.1094 4.5938-0.60938 0.375-1.2656 0.65625-1.9219 0.75-21.281 4.4531-44.25 6.7031-69.188 6.7031-22.688 0-47.016-1.875-73.312-5.5312-88.031-17.906-135.42-36.281-153.74-59.484-19.172-16.359-39.141-29.625-56.766-41.297-32.016-21.234-57.328-38.062-59.156-61.453-0.14062-1.5469 0.32812-3 1.2188-4.125-0.14062-1.125-0.1875-2.2031-0.09375-3.1875 0.5625-20.531-3.4688-43.734-12.75-72.141-81.422-1.5-124.6 18.375-132.14 60.422-24.656 123.66 12.609 159.24 47.812 176.44zm91.5-252.61c-6.4219-36.328-0.9375-68.062 17.203-101.81 10.125-12.234 16.125-24.891 21.469-36 11.906-25.078 20.531-43.219 66.797-46.734 14.953-0.79687 33.047-12.328 52.219-24.516 20.812-13.266 44.906-28.266 62.578-27.75 17.484 0.84375 30.609 3.4688 42.188 5.8125 18.328 3.6562 32.812 6.6094 52.125-0.9375 49.734-24.047 97.219-27.984 141.28-11.719 41.25 14.391 88.078 23.156 146.68 27.422 58.969 11.859 89.812 46.781 94.359 107.34 2.8125 15.281-15.703 66.797-55.078 153.19-0.23437 0.51562-0.375 1.0312-0.46875 1.5-23.906 16.078-54.188 33.047-93.984 44.25-30.938 10.359-59.156 12.516-86.156 6.6094-13.312-7.8281-25.406-1.7344-37.031 4.125-0.60938 0.28125-1.2188 0.60938-1.8281 0.89062 0.5625-0.84375 1.125-1.7344 1.5938-2.625 1.0781-2.7656 1.6406-5.9062 3-8.4844 1.3594-2.5781 3.4688-4.6875 5.7188-6.6562 4.7344-3.7969 8.3906-8.3438 11.719-13.125 2.9531-5.0156 5.2969-10.453 6.1875-16.875 0-0.09375 0-0.23438-0.046874-0.32812-0.14063-0.23438-0.42188-0.32812-0.70313-0.1875-3 1.7344-5.5781 3.75-7.875 5.9531 2.3906-4.8281 4.4062-9.8906 5.3906-15.609 0-0.14062 0-0.23438-0.09375-0.375-0.14063-0.23438-0.46875-0.28125-0.65625-0.14062-6.0469 4.1719-10.594 9.2812-14.578 14.812-3.5625 5.7656-6.7969 11.719-8.9062 18.375-0.98437 2.7656-2.2031 5.3906-3.7969 7.7812 0.09375-1.9688 0.14062-3.9844 0.5625-5.8125 0.60937-2.7188 2.1094-5.1094 3.7969-7.4062 3.6094-4.5469 5.9062-9.5625 7.9219-14.719 1.1719-4.0312 1.6875-8.2969 1.6406-12.75 0.46875-0.84375 0.9375-1.6406 1.5469-2.3438 1.6406-1.7812 4.0781-2.9531 5.9531-4.5469 3.2812-3.5156 5.2969-7.9219 5.4844-13.594 0-0.09375 0-0.14062-0.046876-0.23438-0.09375-0.28125-0.42187-0.42188-0.70312-0.28125-5.25 2.1094-8.7188 5.5312-10.875 9.7969-0.75 2.1562-1.125 4.5938-2.0156 6.6094-0.09375 0-0.14062-0.046875-0.23437 0-2.1562 1.9688-3.9375 4.125-5.4844 6.3281-3.8438 2.8125-6.8438 6.1875-9.4688 9.8438-2.3906 4.125-4.2188 8.6719-4.5938 14.203 0 0.09375 0 0.1875 0.046876 0.23438 0.14062 0.28125 0.42187 0.375 0.70312 0.28125 2.25-1.0312 4.125-2.2969 5.9062-3.6562-0.14062 1.0312-0.375 2.0156-0.42187 3.0938-0.23438 2.8594-0.65625 5.625-1.9219 8.1094-0.65625 1.2656-1.5 2.4375-2.4375 3.5625-0.28125-8.25-3.5156-15.891-9-22.266 1.9219-1.9688 3.3281-4.1719 4.2188-6.7031 0.51563-2.3438 0.46875-5.0156 1.2656-7.1719 0.79687-2.2031 2.3906-3.9844 4.1719-5.625 3.7969-3.2344 6.375-7.0781 8.625-11.109 1.875-4.2656 3.0469-8.8594 2.7188-14.297 0-0.09375-0.046874-0.14062-0.09375-0.23438-0.14062-0.23438-0.46875-0.32812-0.70312-0.1875-1.3125 0.75-2.25 1.7344-3.375 2.5781 2.2969-3.1406 3.8906-6.7969 4.0781-11.438 0-0.09375 0-0.14062-0.046874-0.23438-0.09375-0.28125-0.42188-0.42188-0.70313-0.28125-5.25 2.1094-8.7188 5.5312-10.875 9.7969-0.84375 2.2969-1.125 5.0156-2.2031 7.1719-1.0781 2.1562-2.9062 3.7969-4.9219 5.2969-4.2188 2.8594-7.3125 6.5156-10.078 10.359-2.1094 3.6094-3.5625 7.6406-4.2188 12.234-0.51563-0.28125-0.89063-0.65625-1.4062-0.9375 0.9375-1.7812 1.5469-3.6562 1.7344-5.6719-0.09375-2.1562-0.79687-4.5-0.5625-6.6094 0.23438-2.0625 1.3125-3.9375 2.625-5.7188 2.8125-3.5156 4.3594-7.4062 5.5312-11.344 0.70313-4.0781 0.70313-8.3906-0.9375-13.125 0-0.046875-0.046874-0.14062-0.09375-0.1875-0.1875-0.23438-0.5625-0.28125-0.75-0.046875-3.8438 3.2344-6 6.9375-7.4531 10.828-1.0312 4.0312-1.6406 8.1094-1.0312 12.609 0.23437 2.2031 0.1875 4.3594-0.65625 6.2344-0.84375 1.9219-2.6719 3.5625-3.8438 5.3906-0.70313 1.5-1.0312 3.0469-1.2188 4.6406-1.8281-0.70312-3.75-1.3125-5.6719-1.8281 1.0781-1.6406 1.8281-3.375 2.4375-5.1562 0.75-3.6562 1.125-7.3594 0.1875-11.391-0.375-1.9688-0.51562-3.9375 0.23438-5.6719s2.4375-3.2812 3.4688-4.9219c1.5-3.4688 1.4531-7.3125-0.75-11.625 0-0.046875-0.046876-0.046875-0.046876-0.09375-0.1875-0.23438-0.5625-0.28125-0.84375-0.09375-3.8438 2.9531-5.5312 6.375-5.6719 10.172 0.23437 1.9688 1.0781 4.0781 0.98437 5.9531s-1.0312 3.5625-2.2031 5.2031c-2.5781 3.2344-3.8438 6.75-4.7344 10.359-0.23437 1.8281-0.23437 3.7031 0 5.625-2.2031-0.32812-4.4531-0.42188-6.75-0.5625 1.7812-4.1719 2.625-8.2969 2.7188-12.375-0.375-4.7344-1.125-9.4688-3.1875-14.109-0.9375-2.3438-1.6406-4.6875-1.4062-7.0781 0.1875-2.3906 1.3594-4.8281 1.875-7.2656 0.42188-4.7812-0.75-9.4688-4.125-14.062-0.046874-0.046875-0.09375-0.09375-0.1875-0.14062-0.23437-0.14062-0.5625-0.046875-0.75 0.1875-2.8125 4.9219-3.4219 9.75-2.4375 14.438 0.79688 2.3438 2.25 4.6406 2.7188 6.9844s0.046876 4.7812-0.5625 7.1719c-1.5 4.875-1.6875 9.6094-1.5 14.391 0.5625 3.8906 1.875 7.7812 3.9844 11.578h-0.09375c-1.7812 0-3.4688 0.28125-5.25 0.42188 0.98437-2.4375 1.4062-4.7344 1.125-6.8438-0.79688-2.625-1.9688-5.1094-4.4062-7.2656-1.125-1.125-2.0156-2.25-2.0625-3.6562-0.046876-1.4062 0.84375-3.0469 1.125-4.5469-0.046876-2.8125-1.6406-5.2031-5.3438-7.0312-0.28125-0.14062-0.65625-0.046875-0.84375 0.23438-2.25 3.4688-2.3906 6.3281-0.98438 8.7656 0.98438 1.125 2.625 2.1094 3.2812 3.3281 0.70313 1.2188 0.51563 2.6719 0.14063 4.2188-1.0312 3.0938-0.75 5.8594-0.09375 8.5312 0.75 1.6875 2.0156 3.2344 3.6562 4.6406-1.9219 0.28125-3.7031 0.79688-5.5312 1.2656 0.09375-3.2344-0.75-6.0938-2.3438-8.5781-1.4062-1.6406-3.4219-3.0469-4.5469-4.8281s-1.4062-3.8906-1.5-6.0938c0.046876-4.5-1.1719-8.4844-2.7188-12.328-1.9688-3.6562-4.6406-7.0312-8.8594-9.7031-0.046876-0.046875-0.14063-0.046875-0.1875-0.09375-0.28125-0.046875-0.5625 0.14062-0.65625 0.42188-0.98438 4.9219-0.42188 9.1875 0.84375 13.125 1.6875 3.7969 3.75 7.4062 7.0312 10.5 1.5469 1.5938 2.8594 3.2812 3.375 5.2969 0.51562 2.0156 0.09375 4.4531 0.32812 6.6094 0.65625 2.625 1.9688 4.9688 3.9844 7.0312-2.7188 0.9375-5.2969 2.0625-7.7344 3.375-0.14062-1.1719-0.14062-2.3438-0.32812-3.4688-1.3594-4.4062-3.0469-8.7656-6.0469-12.703-1.4062-2.0156-2.5781-4.0781-2.8594-6.375-0.32813-2.2969 0.32812-4.875 0.28125-7.3125-0.60938-4.6406-2.7188-8.8594-6.9844-12.422-0.046874-0.046875-0.09375-0.09375-0.1875-0.09375-0.28125-0.09375-0.60937 0.046875-0.70312 0.32812-1.6875 5.2969-1.3125 9.9844 0.65625 14.25 1.2656 2.0625 3.1406 3.8906 4.125 6.0469 0.98437 2.1094 1.0781 4.5 0.9375 6.9375-0.46875 4.9219 0.375 9.5156 1.5469 13.969 0.70313 1.8281 1.5938 3.5625 2.5781 5.2969-0.32813 0.23438-0.70313 0.42188-1.0312 0.70312-0.51563-1.3594-0.98438-2.7188-1.6406-3.9844-2.4375-3.5156-5.1562-6.7969-9-9.3281-1.8281-1.3125-3.4688-2.8125-4.3594-4.7344-0.89063-1.9688-0.98438-4.4531-1.6406-6.5625-1.7812-3.9375-4.875-6.9844-9.7969-8.7656-0.046876 0-0.09375-0.046875-0.1875-0.046875-0.32813 0-0.5625 0.23438-0.5625 0.51562-0.23438 5.25 1.4062 9.2812 4.3125 12.422 1.7344 1.4062 3.9844 2.4375 5.4375 4.0312 1.4531 1.5938 2.1562 3.6562 2.7188 5.8594 0.84375 4.5469 2.8594 8.3438 5.1562 11.906 1.1719 1.4531 2.5312 2.7656 3.9844 4.0312-4.7812 5.2969-7.875 11.531-9.0938 18.281-0.5625-1.125-0.98437-2.2969-1.6406-3.375-3.3281-4.875-6.9844-9.5156-11.719-13.406-2.2969-2.0156-4.4062-4.1719-5.7188-6.7969-1.3594-2.625-1.9219-5.8125-3-8.625-2.6719-5.2969-6.7031-9.7031-12.562-12.891-0.09375-0.046875-0.1875-0.09375-0.28125-0.046875-0.28125 0.046875-0.46875 0.28125-0.46875 0.5625 0.70312 6.6094 3.2344 12 7.0781 16.547 2.1562 2.1094 4.875 3.7969 6.7969 6.0938 1.9219 2.25 3.0938 5.0156 4.0781 7.9219 1.7812 5.9062 4.6406 11.062 7.875 15.984 2.6719 3.4688 5.9062 6.5625 9.5625 9.375 0.14063 0.79688 0.09375 1.6875 0.32813 2.4375-3.2812-3.375-6.75-6.6094-10.547-9.5625-3.3281-2.7188-6.4688-5.5781-8.9531-9-2.4844-3.4219-4.1719-7.5-6.4219-11.156-4.9219-6.8906-11.016-12.75-18.844-17.203-0.14062-0.046875-0.28125-0.09375-0.42187-0.046875-0.23438 0.09375-0.375 0.375-0.28125 0.60938 3.0938 8.4375 7.8281 15.469 13.828 21.469 3.2344 2.8125 6.9375 5.1562 9.8906 8.2031 3 3 5.2969 6.5625 7.4062 10.312 0.84375 1.5469 1.875 2.9531 2.7656 4.4062-1.3594-0.46875-2.7656-0.89062-4.4062-1.125h-0.046874c-0.46875-0.046875-0.84375 0.32812-0.84375 0.75-0.375 5.6719 1.1719 9.8438 3.375 13.453 2.6719 3.2344 5.8125 6.0938 10.312 7.8281 2.1094 0.98438 4.0312 2.1562 4.9688 4.0781 1.0312 1.875 0.84375 4.7344 1.5938 6.7969 1.125 2.25 2.8594 3.9375 5.2031 5.2031-3.7031 0.84375-7.4531 1.6875-11.156 2.4844-0.28125-2.9531-0.9375-5.7188-1.9219-8.25 2.2969 1.0312 4.5469 2.1562 7.0781 2.9062 0.14063 0.046875 0.28125 0.046875 0.375-0.046875 0.23438-0.14062 0.32813-0.42188 0.1875-0.65625-3.8438-6.6562-8.7656-12-14.156-16.734-2.8594-2.2031-5.8125-4.3594-8.8594-6.3281-0.70313-2.0625-0.89063-4.4062-1.5-6.5625-1.3594-3.1875-3.4219-5.9531-6.375-8.2031 2.0156 0.98438 4.0781 1.9219 6.375 2.5781 0.09375 0.046875 0.1875 0 0.32812 0 0.28125-0.09375 0.375-0.375 0.28125-0.65625-2.1562-5.8125-5.4844-10.359-9.3281-14.391-4.125-3.6562-8.5312-7.0312-13.828-9.4219-2.5781-1.2656-4.9688-2.7188-6.7969-4.8281-1.8281-2.1094-3-4.9219-4.5938-7.2656-3.6094-4.2188-8.2969-7.3125-14.484-8.7188h-0.28125c-0.28125 0.09375-0.42187 0.375-0.32812 0.65625 2.0156 6 5.4844 10.406 10.031 13.594 2.4844 1.4062 5.3906 2.2969 7.6406 3.8906s3.9375 3.8906 5.4375 6.3281c2.8594 5.0625 6.6562 9.0938 10.688 12.891 1.4531 1.125 3.0469 2.1094 4.6406 3.0938-0.1875 0.09375-0.42188 0.1875-0.42188 0.375-0.14062 4.4062 0.84375 8.1094 2.7188 11.297-3.1875-1.5469-6.2344-3.2812-8.7656-5.7188-2.625-2.4844-4.5938-5.7188-7.0312-8.4844-5.2031-4.9688-11.391-8.7188-18.938-10.734-0.09375-0.046875-0.23438 0-0.375 0.046875-0.23438 0.14062-0.32813 0.42188-0.1875 0.65625 3.7031 6.8906 8.7656 12 14.812 15.938 3.2344 1.7344 6.8438 2.9062 9.8438 4.875 3.0469 1.9688 5.4844 4.6406 7.8281 7.4531 2.2031 2.8594 4.6406 5.4844 7.1719 7.9219-3.8438-2.2031-7.8281-4.0781-12.516-4.875-2.3438-0.51562-4.5938-1.2188-6.375-2.6719s-3.0469-3.75-4.6875-5.4844c-3.5625-2.9531-7.9219-4.5469-13.406-4.2656-0.046874 0-0.14062 0-0.1875 0.046875-0.28125 0.14062-0.375 0.46875-0.28125 0.70312 2.2969 5.0156 5.7188 8.1562 9.9844 9.8906 2.2969 0.60938 4.9219 0.70312 7.0312 1.5938 2.1094 0.89062 3.7969 2.5312 5.3438 4.4062 2.9531 3.8906 6.6562 6.6562 10.5 9.0938 4.0312 2.0156 8.4844 3.375 13.781 3.3281 0.65625 1.3594 1.2656 2.7188 2.0156 4.0312 2.0156 2.8594 4.6406 5.3438 7.6875 7.5938-20.016 3.9844-40.359 6.3281-60.891 3.8438-19.312-1.9219-36.094-6.7969-52.312-11.531-19.828-5.8125-38.859-11.344-60.422-11.344-7.6875 0-15.75 0.70312-24.234 2.3906-36.75 7.2188-71.297-1.6406-85.172-13.594-2.6719-2.3438-5.8594-5.8594-5.6719-9.75 0.70312-25.125-4.9219-53.484-17.484-88.312zm282.19 19.828c-0.1875 5.5312 1.5 9.9375 4.5469 13.453 1.7812 1.5938 4.125 2.8594 5.625 4.6406s2.25 4.0312 2.8125 6.375c0.9375 4.875 3 9 5.3906 12.938 2.7656 3.7031 6.1875 6.9844 11.016 9.375 0.09375 0.046876 0.14062 0.046876 0.23438 0.046876 0.28125 0 0.51562-0.23438 0.51562-0.51563-0.046875-5.3906-1.5469-9.8906-3.6562-14.016-2.5312-3.8438-5.3438-7.5-9.3281-10.453-1.875-1.5469-3.6094-3.1875-4.5469-5.2969-0.9375-2.1094-1.0781-4.7812-1.7344-7.0781-1.875-4.2656-5.0625-7.6875-10.125-9.9375-0.046875-0.046874-0.14062-0.046874-0.1875-0.046874-0.28125-0.046876-0.5625 0.1875-0.5625 0.51562zm12.328 92.719c-0.14062-0.42187-0.23438-0.84375-0.375-1.2656-0.42188-0.32813-0.79688-0.75-1.2188-1.0781 0.5625 0.65625 1.0312 1.5469 1.5938 2.3438zm134.06-31.406c0.65625-2.2031 1.6406-4.2656 2.5781-6.2812-1.2656 1.4531-2.4844 2.9531-3.9375 4.2656-2.4844 2.4375-4.7812 5.0156-6.2812 8.0156-1.125 2.25-1.8281 4.7344-2.625 7.1719 2.0625-1.8281 4.4531-3.4219 6.1875-5.4375 1.9219-2.1562 3.0938-4.875 4.0781-7.7344zm-107.77 31.359c-2.0625-1.8281-3.9844-3.75-5.9062-5.7188 0.51562 1.5469 1.125 2.9531 2.3438 3.9375 0.9375 0.79687 2.25 1.3125 3.5625 1.7812z" fill="#606b37"/>
</svg>
