<?xml version="1.0" encoding="UTF-8"?>
<svg id="Layer_1" xmlns="http://www.w3.org/2000/svg" version="1.1" viewBox="0 0 1508.7 1508.7">
  <!-- Generator: Adobe Illustrator 29.2.1, SVG Export Plug-In . SVG Version: 2.1.0 Build 116)  -->
  <defs>
    <style>
      .st0 {
        fill: #606b37;
        fill-rule: evenodd;
      }
    </style>
  </defs>
  <path class="st0" d="M1354.5,1002.4c-16.5,33-72.6,39.6-130.4,46.2-46.2,130.4-90.8,108.9-142,21.5-69.3,112.2-115.5,123.8-209.6,28.1-13.2,5-28.1,14.9-46.2,24.8,9.9,75.9,18.2,148.6,26.4,226.1-62.7,21.5-97.4,21.5-161.8,0,6.6-59.4,14.9-115.5,21.5-173.3-57.8,18.2-108.9,11.6-120.5-59.4-80.9,28.1-186.5,57.8-212.9-49.5-44.6,8.3-145.2,26.4-138.6-46.2-51.2,1.7-89.1-6.6-85.8-34.7,123.8-71,231.1-168.4,330.1-275.7-33,5-77.6,5-74.3-34.7-34.7,1.7-59.4-5-57.8-23.1,72.6-41.3,138.6-97.4,198.1-160.1-16.5,0-31.4-5-29.7-24.8-23.1,1.7-41.3-3.3-39.6-14.9,115.5-66,201.4-184.9,283.9-282.2,80.9,102.3,168.4,198.1,260.8,288.9-5,13.2-26.4,18.2-47.9,19.8,57.8,62.7,117.2,123.8,176.6,183.2-9.9,23.1-47.9,28.1-85.8,33-1.7,1.7-3.3,5-3.3,8.3,92.4,102.3,189.8,201.4,288.9,298.8h0Z"/>
</svg>